<?xml version="1.0" encoding="utf-8"?>
<svg id="master-artboard" viewBox="0 0 2800 2800" version="1.1" xmlns="http://www.w3.org/2000/svg" x="0px" y="0px" width="2800px" height="2800px" enable-background="new 0 0 2800 2800">

<path opacity="3.000000e-02" fill="#FFFFFF" d="M1400,401.8c135.5,0,266.5,26.9,388.7,78.6c119,50.4,226,122.6,317.1,213.7&#10;&#9;&#9;&#9;c91.1,91.1,163.4,198.1,213.7,317.1c51.7,122.3,78.6,253.2,78.6,388.7c0,135.5-26.9,266.5-78.6,388.7&#10;&#9;&#9;&#9;c-50.4,119-122.6,226-213.7,317.1c-91.1,91.1-198.1,163.4-317.1,213.8c-122.3,51.7-253.2,78.6-388.7,78.6&#10;&#9;&#9;&#9;c-135.5,0-266.5-26.9-388.7-78.6c-119-50.4-226-122.6-317.1-213.7c-91.1-91.1-163.4-198.1-213.8-317.1&#10;&#9;&#9;&#9;c-51.7-122.3-78.6-253.2-78.6-388.7c0-135.5,26.9-266.5,78.6-388.7c50.4-119,122.6-226,213.7-317.1&#10;&#9;&#9;&#9;c91.1-91.1,198.1-163.4,317.1-213.8C1133.5,428.7,1264.5,401.8,1400,401.8z" transform="matrix(1, 0, 0, 1, 2.842170943040401e-14, 1.4210854715202004e-14)"/><path opacity="5.000000e-02" fill="#FFFFFF" d="M1400,564c113.9,0,223.7,22.7,325.6,65.8c99.8,42.2,189.4,102.8,265.6,179&#10;&#9;&#9;&#9;c76.2,76.2,136.8,165.8,179,265.6c43.1,101.9,65.8,211.7,65.8,325.6c0,113.9-22.7,223.7-65.8,325.6&#10;&#9;&#9;&#9;c-42.2,99.7-102.8,189.4-179,265.6c-76.2,76.2-165.8,136.8-265.6,179c-101.9,43.1-211.7,65.8-325.6,65.8&#10;&#9;&#9;&#9;c-113.9,0-223.7-22.7-325.6-65.8c-99.7-42.2-189.4-102.8-265.6-179c-76.2-76.2-136.8-165.8-179-265.6&#10;&#9;&#9;&#9;C586.7,1623.7,564,1513.9,564,1400c0-113.9,22.7-223.7,65.8-325.6c42.2-99.8,102.8-189.4,179-265.6&#10;&#9;&#9;&#9;c76.2-76.2,165.8-136.8,265.6-179C1176.3,586.7,1286.1,564,1400,564z" transform="matrix(1, 0, 0, 1, 2.842170943040401e-14, 1.4210854715202004e-14)"/><path opacity="0.1" fill="#FFFFFF" d="M1400,726.2c92.3,0,180.8,18.5,262.4,53c80.5,34,152.8,83.1,214,144.3&#10;&#9;&#9;&#9;c61.2,61.2,110.3,133.6,144.3,214.1c34.5,81.6,53,170.1,53,262.4c0,92.3-18.5,180.8-53,262.4c-34,80.5-83.1,152.8-144.3,214&#10;&#9;&#9;&#9;c-61.2,61.2-133.6,110.3-214.1,144.3c-81.6,34.5-170.1,53-262.4,53c-92.3,0-180.8-18.5-262.4-53c-80.5-34-152.8-83.1-214-144.3&#10;&#9;&#9;&#9;c-61.2-61.2-110.3-133.6-144.3-214.1c-34.5-81.6-53-170.1-53-262.4c0-92.3,18.5-180.8,53-262.4c34-80.5,83.1-152.8,144.3-214&#10;&#9;&#9;&#9;c61.2-61.2,133.6-110.3,214.1-144.3C1219.2,744.7,1307.7,726.2,1400,726.2z" transform="matrix(1, 0, 0, 1, 2.842170943040401e-14, 1.4210854715202004e-14)"/><linearGradient id="SVGID_2_" gradientUnits="userSpaceOnUse" x1="1918.4268" y1="1523.5435" x2="1918.4268" y2="1031.3109">
		<stop offset="0" style="stop-color:#FFFFFF;stop-opacity:0"/>
		<stop offset="1" style="stop-color:#FFFFFF"/>
	</linearGradient><linearGradient id="SVGID_3_" gradientUnits="userSpaceOnUse" x1="923.5398" y1="923.5397" x2="1876.4603" y2="1876.4602">
			<stop offset="0" style="stop-color:#FFFFFF"/>
			<stop offset="0.4624" style="stop-color:#FBC0A2"/>
			<stop offset="0.9995" style="stop-color:#F1594B"/>
		</linearGradient><path d="M 1301.499954 1065.699951 A 171.300003 171.300003 0 0 1 1130.199951 1236.999954 A 171.300003 171.300003 0 0 1 958.899948 1065.699951 A 171.300003 171.300003 0 0 1 1130.199951 894.399948 A 171.300003 171.300003 0 0 1 1301.499954 1065.699951 Z" opacity="0.1" transform="matrix(1, 0, 0, 1, 4.263256414560601e-14, 2.1316282072803006e-14)"/><path d="M1025.4,960.8c66.9-66.9,168.1-74.2,226-16.2c-66.9-66.9-175.3-66.9-242.2,0s-66.9,175.3,0,242.2&#10;&#9;&#9;&#9;&#9;&#9;C951.2,1128.9,958.5,1027.7,1025.4,960.8z" transform="matrix(1, 0, 0, 1, 4.263256414560601e-14, 2.1316282072803006e-14)"/><path d="M 1617.600021 1415.5 A 94.199997 94.199997 0 0 1 1523.400024 1509.699997 A 94.199997 94.199997 0 0 1 1429.200027 1415.5 A 94.199997 94.199997 0 0 1 1523.400024 1321.300003 A 94.199997 94.199997 0 0 1 1617.600021 1415.5 Z" opacity="0.1" transform="matrix(1, 0, 0, 1, 4.263256414560601e-14, 2.1316282072803006e-14)"/><path d="M1465.7,1357.8c36.8-36.8,92.5-40.8,124.3-8.9c-36.8-36.8-96.5-36.8-133.3,0c-36.8,36.8-36.8,96.5,0,133.3&#10;&#9;&#9;&#9;&#9;&#9;C1424.9,1450.3,1428.9,1394.6,1465.7,1357.8z" transform="matrix(1, 0, 0, 1, 4.263256414560601e-14, 2.1316282072803006e-14)"/><path d="M 1646.5 957.599976 A 56.5 56.5 0 0 1 1590 1014.099976 A 56.5 56.5 0 0 1 1533.5 957.599976 A 56.5 56.5 0 0 1 1590 901.099976 A 56.5 56.5 0 0 1 1646.5 957.599976 Z" opacity="0.1" transform="matrix(1, 0, 0, 1, 4.263256414560601e-14, 2.1316282072803006e-14)"/><path d="M1555.4,923c22.1-22.1,55.5-24.5,74.6-5.4c-22.1-22.1-57.9-22.1-79.9,0c-22.1,22.1-22.1,57.9,0,79.9&#10;&#9;&#9;&#9;&#9;&#9;C1531,978.5,1533.4,945.1,1555.4,923z" transform="matrix(1, 0, 0, 1, 4.263256414560601e-14, 2.1316282072803006e-14)"/><path d="M 1938.100021 1572.099976 A 94.199997 94.199997 0 0 1 1843.900024 1666.299973 A 94.199997 94.199997 0 0 1 1749.700027 1572.099976 A 94.199997 94.199997 0 0 1 1843.900024 1477.899979 A 94.199997 94.199997 0 0 1 1938.100021 1572.099976 Z" opacity="0.1" transform="matrix(1, 0, 0, 1, 4.263256414560601e-14, 2.1316282072803006e-14)"/><path d="M1786.2,1514.4c36.8-36.8,92.5-40.8,124.3-8.9c-36.8-36.8-96.5-36.8-133.3,0c-36.8,36.8-36.8,96.5,0,133.3&#10;&#9;&#9;&#9;&#9;&#9;C1745.4,1606.8,1749.4,1551.2,1786.2,1514.4z" transform="matrix(1, 0, 0, 1, 4.263256414560601e-14, 2.1316282072803006e-14)"/><path d="M 1166.000046 1572.099976 A 123.699997 123.699997 0 0 1 1042.300049 1695.799973 A 123.699997 123.699997 0 0 1 918.600052 1572.099976 A 123.699997 123.699997 0 0 1 1042.300049 1448.399979 A 123.699997 123.699997 0 0 1 1166.000046 1572.099976 Z" opacity="0.1" transform="matrix(1, 0, 0, 1, 4.263256414560601e-14, 2.1316282072803006e-14)"/><path d="M966.5,1496.3c48.3-48.3,121.4-53.6,163.2-11.7c-48.3-48.3-126.7-48.3-175,0c-48.3,48.3-48.3,126.7,0,175&#10;&#9;&#9;&#9;&#9;&#9;C913,1617.7,918.2,1544.6,966.5,1496.3z" transform="matrix(1, 0, 0, 1, 4.263256414560601e-14, 2.1316282072803006e-14)"/><g transform="matrix(1, 0, 0, 1, 4.263256414560601e-14, 2.1316282072803006e-14)">
				<path d="M 1571.000046 1877 A 123.699997 123.699997 0 0 1 1447.300049 2000.699997 A 123.699997 123.699997 0 0 1 1323.600052 1877 A 123.699997 123.699997 0 0 1 1447.300049 1753.300003 A 123.699997 123.699997 0 0 1 1571.000046 1877 Z" opacity="0.1"/>
				<g opacity="0.1">
					<path d="M1371.5,1801.2c48.3-48.3,121.4-53.6,163.2-11.7c-48.3-48.3-126.7-48.3-175,0s-48.3,126.7,0,175&#10;&#9;&#9;&#9;&#9;&#9;&#9;C1318,1922.6,1323.2,1849.5,1371.5,1801.2z"/>
				</g>
			</g><path opacity="0.1" d="M1876.5,923.5c128.3,128.3,132.9,346.1,31.7,555.6c5.5,3.8,10.8,8.2,15.6,13.1c44,44,44,115.7,0,159.7&#10;&#9;&#9;&#9;c-21.3,21.3-49.7,33.1-79.9,33.1c-21.3,0-41.7-5.9-59.4-16.8c-17.5,20.7-36,40.9-55.7,60.6c-45.1,45.1-93,84.4-142.4,117.6&#10;&#9;&#9;&#9;c2.2,9.9,3.3,20.1,3.3,30.6c0,78.5-63.9,142.4-142.4,142.4c-46.9,0-88.6-22.8-114.6-58c-159.6,39.1-310.7,13.5-409.1-85&#10;&#9;&#9;&#9;c263.1,263.1,689.8,263.1,952.9,0S2139.6,1186.7,1876.5,923.5z" transform="matrix(1, 0, 0, 1, 2.842170943040401e-14, 1.4210854715202004e-14)"/><linearGradient id="SVGID_4_" gradientUnits="userSpaceOnUse" x1="830.3253" y1="948.5445" x2="830.3253" y2="535.3053">
		<stop offset="0" style="stop-color:#FFFFFF;stop-opacity:0"/>
		<stop offset="1" style="stop-color:#FFFFFF"/>
	</linearGradient><linearGradient id="SVGID_5_" gradientUnits="userSpaceOnUse" x1="1297.001" y1="2363.3027" x2="1297.001" y2="1775.6158">
		<stop offset="0" style="stop-color:#FFFFFF;stop-opacity:0"/>
		<stop offset="1" style="stop-color:#FFFFFF"/>
	</linearGradient><radialGradient id="SVGID_6_" cx="1400" cy="1400" r="1400" gradientUnits="userSpaceOnUse">
		<stop offset="0" style="stop-color:#FFFFFF"/>
		<stop offset="1" style="stop-color:#FFFFFF;stop-opacity:0"/>
	</radialGradient>
</svg>