<?xml version="1.0" encoding="utf-8"?>
<svg id="master-artboard" viewBox="0 0 335.986 235.19" version="1.1" xmlns="http://www.w3.org/2000/svg" x="0px" y="0px" width="335.9859924316406px" height="235.19000244140625px" enable-background="new 0 0 335.986 235.19">



<g>
	<path d="M251.599,143.564h-2.208c-15.89,9.142-29.969,14.594-42.24,16.363c-15.95-4.716-23.926-7.888-23.926-9.509&#10;&#9;&#9;c6.87-5.528,10.306-12.383,10.306-20.566v-2.763c0-5.601-6.473-12.898-19.416-21.892c-3.067-4.128-4.603-7.334-4.603-9.62&#10;&#9;&#9;l0.194-0.175c-0.842-1.517-1.509-3.2-1.977-5.098c-0.223-0.906-0.406-1.821-0.628-2.727c-0.113-0.461-0.522-1.134-0.54-1.243&#10;&#9;&#9;c-0.447-0.395-1.404-1.237-0.896-0.878c-0.899-0.671-1.816-1.321-2.719-1.993c-5.358-2.903-10.38-4.361-15.062-4.361v-1.328&#10;&#9;&#9;c2.209,0,4.111-1.841,5.706-5.527c-3.986,0-7.422-0.443-10.309-1.326v-1.328c6.873,0,10.309-1.398,10.309-4.2&#10;&#9;&#9;c-8.453,0-12.99-2.718-13.626-8.14h-12.001c-0.603,1.741-1.174,3.564-1.703,5.486h-1.199l-10.213-1.438&#10;&#9;&#9;c0,2.728,3.404,5.013,10.213,6.855v1.437l-2.299,4.091c1.533,0.296,2.299,1.218,2.299,2.765c-2.267,0.885-3.405,3.611-3.405,8.184&#10;&#9;&#9;h2.302v-2.767h2.303v2.767l2.208-1.439h1.195v1.439c-0.245,1.841-1.013,2.763-2.301,2.763c0-0.956-0.368-1.438-1.103-1.438v1.438&#10;&#9;&#9;c0,0.884,0.365,1.327,1.103,1.327l-1.103,2.765v1.327c0,1.843,0.734,2.764,2.208,2.764h1.195c0-2.8,1.504-5.53,4.51-8.183h2.301&#10;&#9;&#9;c1.596,0.37,3.128,2.652,4.602,6.855c-1.165,0-2.698,5.455-4.602,16.363c-3.313,2.36-10.521,5.125-21.626,8.294v2.653&#10;&#9;&#9;c-2.763,0-6.198-0.442-10.308-1.328l-5.706,2.765c-7.363-3.685-12.667-5.526-15.921-5.526v1.437c0,1.547,4.541,3.834,13.621,6.854&#10;&#9;&#9;c0,5.455,1.901,8.183,5.705,8.183c0-1.844,0.768-2.766,2.301-2.766c9.878,2.729,14.816,6.379,14.816,10.947h-1.104&#10;&#9;&#9;c1.104,5.16,2.608,9.287,4.51,12.383c5.338-3.464,8.007-7.111,8.007-10.945h2.298c1.536,0.294,2.302,1.181,2.302,2.654v2.762&#10;&#9;&#9;l-3.405,13.712h7.914c1.536,0.296,2.302,1.216,2.302,2.765v4.09h-2.302l1.198,2.766v4.09c0,2.432-2.67,4.276-8.009,5.527v4.092&#10;&#9;&#9;h3.407c2.944,0,6.382-2.283,10.305-6.855c0,2.728,0.737,4.093,2.212,4.093v-12.384c0-1.768-1.137-2.653-3.406-2.653v-4.204h1.194&#10;&#9;&#9;c6.812,1.846,10.216,4.13,10.216,6.857v9.619h-2.3v2.765l1.197,8.18l-4.603,6.856v2.765c1.412,0,4.449-1.362,9.111-4.091v-8.293&#10;&#9;&#9;c1.533,0,2.3,1.843,2.3,5.529l2.302-1.327c-0.429-8.256-1.963-12.384-4.602-12.384v-2.764c6.688,0,13.16-6.377,19.417-19.13&#10;&#9;&#9;c11.474,1.624,23.622,8.478,36.443,20.565c5.153,2.728,9.355,4.093,12.605,4.093h6.812c0.676,0,2.944-5.013,6.811-15.037&#10;&#9;&#9;c1.104,0,2.27-1.401,3.497-4.204c-1.532,0-2.302-0.885-2.302-2.65c2.271,0,4.174-4.129,5.706-12.387&#10;&#9;&#9;c-0.798,0-1.197-0.441-1.197-1.326C250.465,147.654,251.599,146.293,251.599,143.564z M153.591,124.325&#10;&#9;&#9;c-0.796,0-1.933,0.479-3.405,1.438c-1.473-0.959-2.605-1.438-3.406-1.438c-6.072,3.907-9.108,8.479-9.108,13.711h-1.196&#10;&#9;&#9;c-0.737-1.771-1.105-3.132-1.105-4.091c4.848-10.023,9.787-15.037,14.816-15.037c1.473,0.884,2.609,1.325,3.405,1.325V124.325z"/>
</g>
<path d="M180.491,109.979c0,0,14.365,12.275,27.182,13.948c12.817,1.671,41.814,0.892,37.826,2.971&#10;&#9;c-5.17,2.694-25.751,1.301-30.21,10.773c-4.46,9.473-8.368,4.448-17.275,4.46c-8.908,0.01-6.477,7.092-19.12,15.806"/>
<path d="M122.457,62.622l18.202-18.055c0,0,1.021-1.329,5.719-2.116c4.696-0.788,18.354-4.404,24.345-1.25&#10;&#9;c5.99,3.153,7.736,5.25,1.457,3.568s-13.318-0.409-16.867,1.41c-3.55,1.822-0.253,2.173-1.771,4.539&#10;&#9;c-1.518,2.37-4.393-0.396-5.711,5.864c-1.317,6.263-3.109,10.36-3.109,10.36"/>



</svg>